<svg xmlns="http://www.w3.org/2000/svg" version="1.1" xmlns:xlink="http://www.w3.org/1999/xlink" xmlns:svgjs="http://svgjs.dev/svgjs" viewBox="0 0 1920 1080"><rect width="1920" height="1080" fill="#f4f0ff"></rect><g transform="matrix(7.04171909509728e-17,1.15,-1.15,7.04171909509728e-17,1534.8876342773438,-510.9707794189453)"><path d="M0,-1080C-7.66006669313638,-998.0779858923253,-46.401824897646634,-760.5717366481831,-45.96040015881828,-588.4679153539519C-45.51897541998993,-416.3640940597206,-0.9635847183281059,-191.21373920308017,2.6485484329701166,-47.37707223461254C6.2606815842683385,96.45959473385508,-9.033443912112118,146.02114412804826,-24.287601251028946,274.55208645685383C-39.54175858994577,403.0830287856594,-108.01398099088021,546.7777069182955,-88.87639560053086,723.8085817382208C-69.7388102101815,900.8394565581461,90.74433005999485,1174.6042562175862,90.53791109106717,1336.7373353764056C90.3314921221395,1498.8704145352249,-75.02525756558573,1559.3966125872048,-90.11490941409693,1696.6070566911371C-105.20456126260812,1833.8175007950695,-15.019151569016154,2082.7678427818564,0,2160L 1920 2160 L 1920 -1080 Z" fill="url(&quot;#SvgjsLinearGradient1329&quot;)"></path><path d="M480,-1080C473.20025787699404,-998.0286114292628,433.00398250934165,-757.31089379005,439.2015472619643,-588.1716685755766C445.399112014587,-419.0324433611032,512.8421199757136,-203.7177966592577,517.1853885157359,-65.16464871315941C521.5286570557582,73.38849923293887,467.85076258350114,101.90281597041951,465.26115850209806,243.14721910101292C462.671554420695,384.39162223160633,515.2280546512353,618.2751598957408,501.6477640273173,782.3017700704011C488.0674734033993,946.3283802450613,371.6626500593694,1083.0720480166606,383.77941475859,1227.3068801489744C395.8961794578106,1371.5417122812883,558.3115880157391,1492.26190955578,574.3483522226408,1647.7107628642843C590.3851164295424,1803.1596161727887,495.7247253704401,2074.6184604773807,480,2160L 1920 2160 L 1920 -1080 Z" fill="url(&quot;#SvgjsLinearGradient1330&quot;)"></path><path d="M960,-1080C968.294315905036,-984.696403791906,992.4571805503517,-679.2986935145486,1009.7658954302163,-508.17842275143647C1027.074610310081,-337.0581519883243,1081.7805313256945,-216.7705711588263,1063.8522892791875,-53.27837542132726C1045.9240472326806,110.21382031617176,909.4684743822262,271.3017284670535,902.1964431511747,472.7747516735577C894.9244119201231,674.2477748800619,993.2450898078724,948.9198256485491,1020.2201018928782,1155.559763817698C1047.1951139778841,1362.1997019868468,1074.0831993100228,1545.207674658067,1064.0465156612097,1712.6143806884506C1054.0098320123966,1880.0210867188343,977.341085943535,2085.435730114742,960,2160L 1920 2160 L 1920 -1080 Z" fill="url(&quot;#SvgjsLinearGradient1331&quot;)"></path><path d="M1440,-1080C1454.2487838811292,-1025.8883293983113,1509.1460675896658,-873.0753164382674,1525.4927032867745,-755.3299763898679C1541.8393389838832,-637.5846363414684,1569.1144372482656,-529.0287853561949,1538.0798141826517,-373.52795970960307C1507.0451911170378,-218.02713406301115,1352.0342083872724,30.495012185725813,1339.2849648930912,177.67497748968367C1326.53572139891,324.8549427936415,1433.527420833675,386.78872167230855,1461.584353217565,509.551832114144C1489.641285601455,632.3149425559794,1499.8020696358733,765.6313924706841,1507.626559196431,914.2536401406963C1515.4510487569885,1062.8758878107087,1527.120517927648,1262.3675691152982,1508.5312905809103,1401.2853181342175C1489.9420632341726,1540.2030671531368,1407.5130768794897,1621.3076872765812,1396.0911951160047,1747.7601342542116C1384.6693133525196,1874.212581231842,1432.6818658526674,2091.2933557090355,1440,2160L 1920 2160 L 1920 -1080 Z" fill="url(&quot;#SvgjsLinearGradient1332&quot;)"></path></g><defs><linearGradient x1="0.1" y1="0" x2="0" y2="1" id="SvgjsLinearGradient1329"><stop stop-color="#f4f0ff" offset="0"></stop><stop stop-color="#f1f0ff" offset="0"></stop></linearGradient><linearGradient x1="0.1" y1="0" x2="0" y2="1" id="SvgjsLinearGradient1330"><stop stop-color="#f8f6ff" offset="0"></stop><stop stop-color="#f6f6ff" offset="0.25"></stop></linearGradient><linearGradient x1="0.1" y1="0" x2="0" y2="1" id="SvgjsLinearGradient1331"><stop stop-color="#fdfcff" offset="0"></stop><stop stop-color="#fcfcff" offset="0.5"></stop></linearGradient><linearGradient x1="0.1" y1="0" x2="0" y2="1" id="SvgjsLinearGradient1332"><stop stop-color="#ffffff" offset="0"></stop><stop stop-color="#ffffff" offset="0.75"></stop></linearGradient></defs></svg>
